<?xml version="1.0" encoding="utf-8"?>
<!-- Generator: Adobe Illustrator 25.2.3, SVG Export Plug-In . SVG Version: 6.00 Build 0)  -->
<svg version="1.1" id="Layer_1" xmlns="http://www.w3.org/2000/svg" xmlns:xlink="http://www.w3.org/1999/xlink" x="0px" y="0px"
	 viewBox="0 0 1366 768" style="enable-background:new 0 0 1366 768;" xml:space="preserve">
<style type="text/css">
	.st0{fill:#3FE6F5;}
	.st1{fill:#3FC3F5;}
	.st2{fill:#3FA9F5;}
	.st3{fill:#3F77F5;}
</style>
<path class="st0" d="M0,476c191.5,0,215-71,343-71s173,123,329,123s140.5-51,350-51c226.5,0,344-57,344-57v348H0V476z"/>
<path class="st1" d="M0,484c191.5,0,211-47,339-47s169,73,325,73s146.5-57,356-57c226.5,0,346,20,346,20v295H0V484z"/>
<path class="st2" d="M0,503c191.5,0,213-50,341-50s167,102,323,102s157.5-55,367-55c226.5,0,335,68,335,68v200H0V503z"/>
<path class="st3" d="M0,550c191.5,0,216-66,344-66s164,119,320,119s152.5-67,362-67c226.5,0,340,55,340,55v177H0V550z"/>
</svg>
